<svg width="16" height="14" viewBox="0 0 16 14" fill="none" xmlns="http://www.w3.org/2000/svg">
<g clip-path="url(#clip0_5309_213601)">
<path d="M11.9914 14C11.4771 14 10.9671 14 10.4529 14C10.3644 14 10.2674 13.9958 10.1831 13.9704C10.0061 13.9196 9.8881 13.7419 9.9176 13.5641C9.94711 13.3779 10.0567 13.2594 10.2506 13.2382C10.3349 13.2298 10.4192 13.2298 10.5035 13.2298C11.3254 13.2298 12.1473 13.2298 12.9692 13.2298C13.6731 13.2298 13.7785 13.124 13.7785 12.4299C13.7785 11.6385 13.7827 10.8513 13.7785 10.0599C13.7743 9.497 13.926 9.01453 14.4445 8.71405C14.5203 8.66749 14.5288 8.62517 14.4487 8.57862C13.9134 8.27813 13.7827 7.78297 13.7827 7.21163C13.7869 6.37366 13.7827 5.53569 13.7827 4.69349C13.7827 4.22795 13.6436 4.09252 13.1758 4.08829C12.3117 4.08829 11.4476 4.08829 10.5836 4.08829C10.4782 4.08829 10.3728 4.08829 10.2674 4.07559C10.0651 4.0502 9.93025 3.90207 9.92182 3.71163C9.91339 3.52118 10.0356 3.36459 10.2337 3.31804C10.3222 3.29688 10.415 3.29688 10.5077 3.29688C11.4898 3.29688 12.4719 3.29688 13.4582 3.29688C13.5846 3.29688 13.7111 3.30957 13.8333 3.3265C14.3855 3.41114 14.6974 3.75818 14.7522 4.32106C14.7901 4.72311 14.7775 5.12517 14.7817 5.52723C14.7859 6.14089 14.7775 6.75455 14.7859 7.36822C14.7943 7.95649 15.0093 8.18502 15.5909 8.24004C15.8649 8.26544 16.0124 8.40933 16.0124 8.6421C16.0124 8.8791 15.8607 9.02723 15.5952 9.04839C15.0219 9.09494 14.7943 9.33194 14.7901 9.91598C14.7817 10.7413 14.7901 11.5665 14.7859 12.3918C14.7859 12.5695 14.7775 12.7431 14.7606 12.9208C14.6974 13.6234 14.3138 13.9789 13.6057 14C13.5931 14 13.5762 14 13.5635 14C13.0282 14 12.5098 14 11.9914 14Z" fill="white" style="fill:white;fill-opacity:1;"/>
<path d="M3.96619 13.9999C3.47304 13.9999 2.9841 13.9999 2.49095 13.9999C1.64796 13.9957 1.26018 13.6021 1.25175 12.7514C1.24332 11.8161 1.27283 10.8766 1.22646 9.94128C1.19696 9.33185 1.01572 9.12447 0.412976 9.05252C0.139004 9.01867 -0.0127351 8.86631 -0.00430522 8.62507C0.00412471 8.44309 0.0926389 8.32036 0.269667 8.26957C0.316032 8.25688 0.366612 8.25264 0.412976 8.24841C1.01993 8.17646 1.21803 7.96486 1.21803 7.3385C1.22225 6.50899 1.21803 5.67526 1.22225 4.84575C1.22225 4.65107 1.23489 4.45216 1.26018 4.25748C1.32762 3.77501 1.67325 3.42798 2.15376 3.34333C2.18326 3.3391 2.20855 3.33064 2.23805 3.33064C3.38031 3.29255 4.52678 3.30101 5.66903 3.3264C5.94722 3.33064 6.09896 3.50415 6.08632 3.73269C6.07367 3.957 5.9135 4.09666 5.6311 4.10089C4.71224 4.10512 3.79338 4.10512 2.87451 4.10512C2.36029 4.10512 2.22541 4.23632 2.22541 4.75688C2.22541 5.56522 2.2212 6.37779 2.22541 7.18614C2.22962 7.77018 2.10739 8.27804 1.55523 8.59122C1.47093 8.63777 1.48358 8.68009 1.55945 8.72665C2.07367 9.03136 2.22541 9.5096 2.2212 10.0725C2.21698 10.902 2.2212 11.7357 2.2212 12.5652C2.2212 13.0858 2.35607 13.2297 2.88294 13.2339C3.76809 13.2424 4.65323 13.2339 5.53416 13.2381C5.90507 13.2381 6.07789 13.3609 6.0821 13.6106C6.08632 13.856 5.89243 13.9999 5.53837 13.9999C5.01993 14.0042 4.49306 13.9999 3.96619 13.9999Z" fill="white" style="fill:white;fill-opacity:1;"/>
<path d="M11.1528 9.6874C10.5627 9.6874 10.1117 9.23879 10.1075 8.65052C10.1032 8.04109 10.5669 7.56709 11.1612 7.57132C11.7429 7.57555 12.2149 8.05802 12.2107 8.64205C12.2065 9.23456 11.7471 9.6874 11.1528 9.6874Z" fill="white" style="fill:white;fill-opacity:1;"/>
<path d="M5.23917 9.68749C4.64486 9.69172 4.177 9.23888 4.16857 8.64637C4.16014 8.07926 4.63643 7.57987 5.1928 7.5714C5.79976 7.56294 6.27183 8.02425 6.27605 8.62098C6.28026 9.23041 5.83348 9.68749 5.23917 9.68749Z" fill="white" style="fill:white;fill-opacity:1;"/>
<path d="M7.21173 0C7.55314 0 7.65852 0.105804 7.64587 0.435913C7.62058 1.02418 7.59951 1.61669 7.57422 2.20496C7.56157 2.53507 7.44355 2.62817 7.12322 2.58585C6.94619 2.56046 6.8661 2.47158 6.86189 2.29383C6.84081 1.67594 6.81131 1.05804 6.78602 0.440145C6.77338 0.0973397 6.8661 0.00423216 7.21173 0Z" fill="white" style="fill:white;fill-opacity:1;"/>
<path d="M9.34865 0.787345C9.34865 1.26558 9.30229 1.74381 9.29386 2.22205C9.28964 2.531 9.12948 2.6495 8.826 2.59448C8.6869 2.56909 8.59839 2.49714 8.59417 2.34478C8.56889 1.68456 8.53517 1.02435 8.51409 0.364129C8.50566 0.09327 8.62368 0.00439453 8.93559 0.00439453C9.25171 0.00439453 9.34865 0.0890378 9.35287 0.368361C9.35287 0.50379 9.34865 0.643451 9.34865 0.787345C9.36973 0.787345 9.33179 0.787345 9.34865 0.787345Z" fill="white" style="fill:white;fill-opacity:1;"/>
</g>
<defs>
<clipPath id="clip0_5309_213601">
<rect width="16" height="14" fill="white" style="fill:white;fill-opacity:1;"/>
</clipPath>
</defs>
</svg>
