<svg width="12" height="14" viewBox="0 0 12 14" fill="none" xmlns="http://www.w3.org/2000/svg">
<path fill-rule="evenodd" clip-rule="evenodd" d="M7.99755 1.80306C7.73583 1.54835 7.38505 1.40583 7.01985 1.40583C6.65465 1.40583 6.30386 1.54835 6.04215 1.80306L0.828113 6.91634C0.740861 7.00115 0.62398 7.04859 0.502304 7.04859C0.380627 7.04859 0.263746 7.00115 0.176494 6.91634C0.133777 6.8748 0.0998217 6.82512 0.0766358 6.77022C0.0534499 6.71533 0.0415039 6.65635 0.0415039 6.59676C0.0415039 6.53718 0.0534499 6.47819 0.0766358 6.4233C0.0998217 6.36841 0.133777 6.31873 0.176494 6.27718L5.39053 1.1639C5.82668 0.739447 6.41125 0.501953 7.01985 0.501953C7.62844 0.501953 8.21301 0.739447 8.64917 1.1639C8.90154 1.40933 9.0922 1.71103 9.20555 2.04431C9.3189 2.37759 9.35172 2.73298 9.30133 3.08138C9.65436 3.03117 10.0142 3.06269 10.3531 3.1735C10.6921 3.28432 11.001 3.47147 11.2562 3.72054L11.2833 3.74762C11.4969 3.95534 11.6666 4.20377 11.7826 4.47822C11.8985 4.75268 11.9582 5.04759 11.9582 5.34553C11.9582 5.64346 11.8985 5.93837 11.7826 6.21283C11.6666 6.48728 11.4969 6.73571 11.2833 6.94343L6.56756 11.5676C6.55333 11.5814 6.54201 11.598 6.53429 11.6163C6.52656 11.6345 6.52258 11.6542 6.52258 11.674C6.52258 11.6939 6.52656 11.7135 6.53429 11.7318C6.54201 11.7501 6.55333 11.7666 6.56756 11.7805L7.53605 12.7305C7.57877 12.7721 7.61272 12.8218 7.63591 12.8767C7.6591 12.9316 7.67104 12.9905 7.67104 13.0501C7.67104 13.1097 7.6591 13.1687 7.63591 13.2236C7.61272 13.2785 7.57877 13.3282 7.53605 13.3697C7.4488 13.4545 7.33192 13.502 7.21024 13.502C7.08857 13.502 6.97168 13.4545 6.88443 13.3697L5.91594 12.4202C5.81619 12.3232 5.73689 12.2073 5.68275 12.0792C5.6286 11.9511 5.6007 11.8134 5.6007 11.6743C5.6007 11.5352 5.6286 11.3975 5.68275 11.2694C5.73689 11.1413 5.81619 11.0254 5.91594 10.9284L10.6316 6.30373C10.7597 6.17906 10.8615 6.02999 10.9311 5.86532C11.0006 5.70065 11.0364 5.52372 11.0364 5.34498C11.0364 5.16624 11.0006 4.98932 10.9311 4.82465C10.8615 4.65998 10.7597 4.51091 10.6316 4.38624L10.6046 4.3597C10.3431 4.10526 9.99282 3.96275 9.62801 3.96245C9.2632 3.96215 8.91264 4.10407 8.65079 4.35808L4.76599 8.16812L4.76491 8.16921L4.71183 8.22175C4.62455 8.30672 4.50755 8.35426 4.38575 8.35426C4.26394 8.35426 4.14694 8.30672 4.05967 8.22175C4.01695 8.18021 3.98299 8.13052 3.95981 8.07563C3.93662 8.02074 3.92468 7.96176 3.92468 7.90217C3.92468 7.84258 3.93662 7.7836 3.95981 7.72871C3.98299 7.67382 4.01695 7.62413 4.05967 7.58259L7.99917 3.71892C8.1269 3.59416 8.22837 3.44511 8.2976 3.28053C8.36683 3.11596 8.40241 2.93919 8.40226 2.76064C8.40211 2.5821 8.36622 2.40539 8.29672 2.24093C8.22721 2.07648 8.12549 1.92759 7.99755 1.80306Z" fill="white" style="fill:white;fill-opacity:1;"/>
<path fill-rule="evenodd" clip-rule="evenodd" d="M7.34586 3.08111C7.38858 3.03956 7.42253 2.98988 7.44572 2.93499C7.46891 2.8801 7.48085 2.82111 7.48085 2.76153C7.48085 2.70194 7.46891 2.64296 7.44572 2.58807C7.42253 2.53317 7.38858 2.48349 7.34586 2.44195C7.25858 2.35698 7.14159 2.30943 7.01978 2.30943C6.89797 2.30943 6.78098 2.35698 6.6937 2.44195L2.83761 6.22383C2.62402 6.43154 2.45425 6.67997 2.33832 6.95443C2.22239 7.22888 2.16266 7.5238 2.16266 7.82173C2.16266 8.11967 2.22239 8.41458 2.33832 8.68903C2.45425 8.96349 2.62402 9.21192 2.83761 9.41963C3.27383 9.84396 3.85838 10.0814 4.46693 10.0814C5.07548 10.0814 5.66003 9.84396 6.09625 9.41963L9.95288 5.63775C9.9956 5.59621 10.0296 5.54652 10.0527 5.49163C10.0759 5.43674 10.0879 5.37776 10.0879 5.31817C10.0879 5.25858 10.0759 5.1996 10.0527 5.14471C10.0296 5.08982 9.9956 5.04013 9.95288 4.99859C9.8656 4.91362 9.74861 4.86608 9.6268 4.86608C9.50499 4.86608 9.388 4.91362 9.30072 4.99859L5.44463 8.78047C5.18291 9.03518 4.83213 9.1777 4.46693 9.1777C4.10173 9.1777 3.75095 9.03518 3.48923 8.78047C3.36115 8.6558 3.25934 8.50673 3.18982 8.34207C3.12031 8.1774 3.08449 8.00047 3.08449 7.82173C3.08449 7.64299 3.12031 7.46606 3.18982 7.30139C3.25934 7.13673 3.36115 6.98766 3.48923 6.86299L7.34586 3.08111Z" fill="white" style="fill:white;fill-opacity:1;"/>
</svg>
