<svg width="14" height="16" viewBox="0 0 14 16" fill="none" xmlns="http://www.w3.org/2000/svg">
<path d="M7 15.1689C6.94667 15.1689 6.89329 15.1602 6.84196 15.1428C5.78263 14.7895 0.5 12.7502 0.5 7.26082V3.33553C0.5 3.09753 0.668018 2.89145 0.902018 2.84545C4.15535 2.19479 5.3087 1.62286 6.76937 0.898189C6.9107 0.828189 7.0973 0.818912 7.2373 0.888912C8.67797 1.61491 9.81597 2.18879 13.0986 2.84545C13.3326 2.89212 13.5007 3.09753 13.5007 3.33553V7.26147C13.5007 12.7508 8.21802 14.7901 7.15869 15.1435C7.10669 15.1601 7.05333 15.1689 7 15.1689ZM1.5 3.74357V7.26082C1.5 11.8375 5.77867 13.7009 7 14.1389C8.22133 13.7009 12.5 11.8368 12.5 7.26082V3.74357C9.55267 3.1269 8.31326 2.54812 7.00993 1.89412C5.62526 2.57879 4.42333 3.1329 1.5 3.74357Z" fill="white" style="fill:white;fill-opacity:1;"/>
</svg>
