<svg width="1550" height="170" viewBox="0 0 1550 170" fill="none" xmlns="http://www.w3.org/2000/svg">
<path d="M59.7419 0C79.2568 0 95.0349 5.59662 108.182 15.8831L108.715 16.3022V50.0088L106.057 45.6244C93.6539 25.1819 75.8399 16.0738 56.2296 16.0736C42.1519 16.0736 28.383 24.2359 28.3828 39.1879C28.3828 44.76 29.8822 49.4266 33.1682 53.4706C36.4796 57.5453 41.6898 61.0928 49.2945 64.248L80.9048 77.3007C91.7344 81.7235 100.108 87.6424 105.773 95.1079C111.447 102.586 114.338 111.532 114.338 121.877C114.338 136.24 108.547 148.313 98.5023 156.776C88.475 165.224 74.3026 170 57.634 170C34.3667 170 16.3954 163.021 3.4285 149.635L3.08788 149.283L3.04321 148.799L0 114.899L2.65792 114.075C19.1151 141.504 39.3189 153.698 61.3807 153.698C70.8444 153.698 78.5023 151.136 83.7721 146.63C89.0204 142.142 92.039 135.61 92.039 127.375C92.0388 121.583 90.3688 116.211 86.7315 111.459C83.0838 106.693 77.3974 102.477 69.254 99.1113L39.0564 86.9759L39.0425 86.9704C27.764 82.3258 19.6182 76.5832 14.2975 69.566C8.96311 62.5304 6.55268 54.3226 6.55268 44.914C6.55285 31.5732 12.0572 20.3049 21.5119 12.3913C30.9502 4.49189 44.241 2.35909e-05 59.7419 0Z" fill="#BFFCFF" fill-opacity="0.3"/>
<path fill-rule="evenodd" clip-rule="evenodd" d="M1023.17 0C1073.88 0 1109.15 36.3923 1109.15 85C1109.15 133.608 1073.88 170 1023.17 170C972.454 169.999 937.427 133.602 937.427 85C937.427 36.3979 972.454 0.000602367 1023.17 0ZM1023.17 15.8422C1006.21 15.8425 991.087 22 980.196 33.6549C969.299 45.3168 962.534 62.5964 962.534 85C962.534 107.404 969.299 124.683 980.196 136.345C991.087 148 1006.21 154.157 1023.17 154.158C1040.13 154.158 1055.26 148 1066.15 136.345C1077.04 124.683 1083.81 107.404 1083.81 85C1083.81 62.5964 1077.04 45.3168 1066.15 33.6549C1055.26 21.9996 1040.13 15.8422 1023.17 15.8422Z" fill="#BFFCFF" fill-opacity="0.3"/>
<path d="M175.914 5.63637C171.419 11.768 169.297 14.6752 168.253 16.7975C167.296 18.7449 167.282 19.9435 167.282 22.9238V105.385C167.282 120.362 171.597 132.189 179.228 140.259C186.847 148.315 197.916 152.781 211.757 152.781C225.235 152.78 236.007 148.323 243.423 140.272C250.857 132.204 255.06 120.372 255.06 105.385V22.4638C255.06 19.4791 255.044 18.299 254.072 16.4219C253.006 14.3638 250.835 11.5765 246.218 5.67175L244.47 3.43462L281.545 3.43462L280.19 5.56288C276.289 11.691 274.441 14.6 273.532 16.7295C272.687 18.7067 272.675 19.9397 272.675 22.9238V104.01C272.675 124.981 266.868 141.517 255.828 152.816C244.778 164.125 228.671 169.997 208.477 169.997C188.177 169.997 171.954 164.244 160.813 153.023C149.679 141.808 143.813 125.326 143.813 104.239V22.4638C143.813 19.4752 143.799 18.2525 142.961 16.3403C142.056 14.2742 140.215 11.4833 136.311 5.58193L134.89 3.43462L177.531 3.43462L175.914 5.63637Z" fill="#BFFCFF" fill-opacity="0.3"/>
<path fill-rule="evenodd" clip-rule="evenodd" d="M372.567 3.43462C389.565 3.43462 403.331 7.96922 412.872 15.9076C422.433 23.8633 427.633 35.1414 427.633 48.3486C427.633 61.5558 422.433 72.834 412.872 80.7897C403.331 88.7279 389.565 93.2627 372.567 93.2627H338.866V147.531C338.866 150.517 338.882 151.704 339.832 153.586C340.871 155.645 342.987 158.433 347.485 164.336L349.179 166.563L306.527 166.563L307.884 164.434C311.785 158.306 313.63 155.395 314.54 153.265C315.384 151.288 315.397 150.057 315.397 147.074V22.4638C315.397 19.4752 315.383 18.2525 314.545 16.3403C313.64 14.2742 311.802 11.4827 307.898 5.58193L306.474 3.43462L372.567 3.43462ZM338.866 78.7948H368.586C380.261 78.7948 388.827 75.552 394.467 70.2246C400.106 64.8995 402.991 57.3318 402.991 48.3486C402.991 39.3655 400.106 31.7978 394.467 26.4727C388.827 21.1453 380.261 17.9025 368.586 17.9025L338.866 17.9025V78.7948Z" fill="#BFFCFF" fill-opacity="0.3"/>
<path d="M556.536 33.7747L554.113 31.4831C547.124 24.8757 542.531 21.6957 538.794 20.1369C535.11 18.6007 532.159 18.591 528.173 18.591L477.608 18.591V72.6087H518.572C522.337 72.6087 525.049 72.5994 528.26 71.5881C531.489 70.5712 535.321 68.5052 541.125 64.1909L543.42 62.4845V97.8921L541.125 96.1856C535.321 91.8714 531.489 89.8027 528.26 88.7857C525.049 87.7746 522.337 87.7651 518.572 87.7651H477.608V151.406H524.192C528.627 151.406 531.894 151.397 536.415 149.591C541.01 147.755 546.964 144.029 556.542 136.375L559.34 134.141L555.118 165.352L554.956 166.563H445.269L446.626 164.434C450.528 158.306 452.373 155.395 453.282 153.265C454.126 151.288 454.139 150.057 454.139 147.074V22.4638C454.139 19.4752 454.126 18.2525 453.288 16.3403C452.382 14.2742 450.542 11.4831 446.637 5.58193L445.216 3.43462L556.536 3.43462V33.7747Z" fill="#BFFCFF" fill-opacity="0.3"/>
<path fill-rule="evenodd" clip-rule="evenodd" d="M645.502 3.43462C662.702 3.4347 676.693 7.60935 686.415 15.1918C696.171 22.8014 701.502 33.7488 701.502 46.9743C701.502 58.6634 697.266 68.5391 689.505 75.8909C682.238 82.7751 671.966 87.3651 659.405 89.2511L703.529 143.911L706.41 147.408C708.955 150.481 710.604 152.403 712.413 154.277C714.828 156.78 717.534 159.205 723.053 164.143L725.759 166.563H692.345L631.681 90.2853H612.735V147.302C612.735 150.406 612.756 151.616 613.819 153.502C614.991 155.581 617.379 158.365 622.471 164.271L624.445 166.563H580.396L581.753 164.434C585.655 158.306 587.5 155.395 588.409 153.265C589.254 151.288 589.266 150.057 589.266 147.074V22.4638C589.266 19.4752 589.253 18.2525 588.415 16.3403C587.509 14.2742 585.669 11.4829 581.764 5.58193L580.343 3.43462L645.502 3.43462ZM612.735 76.5033L642.456 76.5033C653.596 76.5033 662.175 73.8073 667.952 68.8883C673.699 63.9936 676.861 56.7362 676.861 47.2029C676.861 37.6696 673.699 30.4121 667.952 25.5174C662.175 20.5986 653.596 17.9025 642.456 17.9025L612.735 17.9025V76.5033Z" fill="#BFFCFF" fill-opacity="0.3"/>
<path d="M826.254 91.6189L885.441 3.43462L914.508 3.43462L913.204 5.54655C909.421 11.674 907.629 14.5845 906.746 16.7159C905.924 18.6995 905.914 19.9392 905.914 22.9238V147.531C905.914 150.52 905.925 151.75 906.74 153.668C907.619 155.736 909.404 158.529 913.19 164.429L914.558 166.563H870.565L872.458 164.29C877.663 158.043 880.122 155.079 881.331 152.93C882.427 150.98 882.442 149.815 882.442 146.845V36.5915L822.51 127.198L762.81 36.8174V147.531C762.81 150.516 762.827 151.698 763.799 153.575C764.865 155.633 767.036 158.419 771.652 164.323L773.403 166.563H736.795L738.152 164.434C742.054 158.306 743.898 155.395 744.808 153.265C745.652 151.288 745.665 150.057 745.665 147.074V22.4638C745.665 19.4752 745.652 18.2525 744.814 16.3403C743.908 14.2742 742.067 11.483 738.163 5.58193L736.742 3.43462L766.836 3.43462L826.254 91.6189Z" fill="#BFFCFF" fill-opacity="0.3"/>
<path fill-rule="evenodd" clip-rule="evenodd" d="M1195.87 3.43462C1219.58 3.43462 1240.85 10.6259 1256.21 24.4778C1271.59 38.3443 1280.91 58.7739 1280.91 84.9973C1280.91 111.221 1271.59 131.653 1256.21 145.52C1240.85 159.371 1219.58 166.563 1195.87 166.563H1131.7L1133.06 164.434C1136.96 158.306 1138.81 155.395 1139.72 153.265C1140.56 151.288 1140.57 150.057 1140.57 147.074V22.4638C1140.57 19.4752 1140.56 18.2525 1139.72 16.3403C1138.82 14.2742 1136.98 11.4831 1133.07 5.58193L1131.65 3.43462L1195.87 3.43462ZM1164.04 151.635H1192.12C1209.02 151.635 1224.92 146.128 1236.59 135.107C1248.25 124.097 1255.81 107.47 1255.81 84.9973C1255.81 62.4095 1248.25 45.7854 1236.6 34.8061C1224.93 23.8139 1209.03 18.3598 1192.12 18.3597L1164.04 18.3597V151.635Z" fill="#BFFCFF" fill-opacity="0.3"/>
<path d="M1414.65 33.7747L1412.22 31.4831C1405.23 24.8759 1400.64 21.6957 1396.91 20.1369C1393.22 18.6003 1390.27 18.591 1386.28 18.591L1335.72 18.591V72.6087H1376.68C1380.45 72.6087 1383.16 72.5997 1386.37 71.5881C1389.6 70.5711 1393.43 68.5044 1399.24 64.1909L1401.53 62.4845V97.8921L1399.24 96.1856C1393.43 91.8716 1389.6 89.8027 1386.37 88.7857C1383.16 87.7742 1380.45 87.7651 1376.68 87.7651H1335.72V151.406H1382.3C1386.74 151.406 1390 151.397 1394.53 149.591C1399.12 147.755 1405.08 144.03 1414.66 136.375L1417.45 134.141L1413.07 166.563H1303.38L1304.74 164.434C1308.64 158.306 1310.48 155.395 1311.39 153.265C1312.24 151.288 1312.25 150.057 1312.25 147.074V22.4638C1312.25 19.4752 1312.24 18.2525 1311.4 16.3403C1310.49 14.2742 1308.65 11.4827 1304.75 5.58193L1303.33 3.43462L1414.65 3.43462V33.7747Z" fill="#BFFCFF" fill-opacity="0.3"/>
<path d="M1478.59 5.57649C1474.57 11.7052 1472.66 14.6153 1471.73 16.7431C1470.86 18.714 1470.85 19.9403 1470.85 22.9238V150.949L1513.92 150.949C1518.59 150.949 1522.07 150.939 1526.75 148.946C1531.51 146.921 1537.58 142.81 1547.15 134.358L1550 131.846L1545.63 166.563L1438.51 166.563L1439.86 164.434C1443.77 158.306 1445.61 155.395 1446.52 153.265C1447.37 151.288 1447.38 150.057 1447.38 147.074V22.4638C1447.38 19.4752 1447.37 18.2525 1446.53 16.3403C1445.62 14.2742 1443.78 11.4833 1439.88 5.58193L1438.46 3.43462L1479.99 3.43462L1478.59 5.57649Z" fill="#BFFCFF" fill-opacity="0.3"/>
</svg>
